<svg id="visual" viewBox="0 0 900 600" width="900" height="600" xmlns="http://www.w3.org/2000/svg" xmlns:xlink="http://www.w3.org/1999/xlink" version="1.1"><rect x="0" y="0" width="900" height="600" fill="#fdfdfd"></rect><path d="M0 335L129 246L257 217L386 333L514 223L643 245L771 266L900 276L900 0L771 0L643 0L514 0L386 0L257 0L129 0L0 0Z" fill="#8d8d8d"></path><path d="M0 218L129 266L257 203L386 223L514 265L643 205L771 235L900 279L900 0L771 0L643 0L514 0L386 0L257 0L129 0L0 0Z" fill="#818080"></path><path d="M0 213L129 176L257 220L386 164L514 169L643 220L771 183L900 193L900 0L771 0L643 0L514 0L386 0L257 0L129 0L0 0Z" fill="#767373"></path><path d="M0 161L129 184L257 130L386 170L514 150L643 193L771 150L900 113L900 0L771 0L643 0L514 0L386 0L257 0L129 0L0 0Z" fill="#6a6767"></path><path d="M0 106L129 102L257 138L386 86L514 125L643 85L771 118L900 125L900 0L771 0L643 0L514 0L386 0L257 0L129 0L0 0Z" fill="#5f5b5a"></path><path d="M0 31L129 78L257 62L386 47L514 35L643 32L771 72L900 67L900 0L771 0L643 0L514 0L386 0L257 0L129 0L0 0Z" fill="#544f4e"></path></svg>